# xmcd
#
# Track frame offsets:
#	150
#	21581
#	43458
#	73073
#	90095
#	124469
#	140177
#	166486
#	187581
#	204172
#	228524
#	252993
#
# Disc length: 3765 seconds
#
# Revision: 0
# Processed by: cddbd v1.4PL0 Copyright (c) Steve Scherf et al.
# Submitted via: dBpowerAMP V4.0
#
DISCID=ad0eb30c
DTITLE=Robert Lighthouse - Drive-Thru Love
DYEAR=1900
DGENRE=Blues
TTITLE0=Going to the River
TTITLE1=Drive-Thru Love
TTITLE2=Going Back South
TTITLE3=She's the one I love
TTITLE4=Voodoo Child
TTITLE5=Talk to me Baby
TTITLE6=Shake for me
TTITLE7=Looking for my lover
TTITLE8=Crossroads
TTITLE9=Machine
TTITLE10=Lost and Found
TTITLE11=Riding Into the Sun
EXTD=onefiftyfour
EXTT0=
EXTT1=
EXTT2=
EXTT3=
EXTT4=
EXTT5=
EXTT6=
EXTT7=
EXTT8=
EXTT9=
EXTT10=
EXTT11=
PLAYORDER=
